<svg width="143" height="30" viewBox="0 0 143 30" fill="none" xmlns="http://www.w3.org/2000/svg">
<path d="M138.866 29.9195L134.221 18.4605C133.993 17.838 133.738 17.1024 133.454 16.2536C133.17 15.3765 132.885 14.4428 132.601 13.4525C132.346 12.4622 132.09 11.5002 131.834 10.5665C131.607 9.60452 131.394 8.72741 131.195 7.93518C130.996 7.14295 130.826 6.50633 130.684 6.02534C130.57 5.54434 130.513 5.30384 130.513 5.30384L127.999 2.75739L128.212 0.210938H131.621L136.181 11.4578C136.437 12.1085 136.707 12.8866 136.991 13.792C137.275 14.6974 137.559 15.6453 137.843 16.6356C138.127 17.5975 138.383 18.5454 138.61 19.4791C138.866 20.3845 139.079 21.2192 139.249 21.9831C139.448 22.747 139.604 23.3554 139.718 23.8081C139.832 24.2608 139.888 24.4871 139.888 24.4871L142.531 27.3731L142.19 29.9195H138.866ZM127.402 29.9195V1.01731C127.402 0.47973 127.672 0.210938 128.212 0.210938L131.749 1.01731L131.11 7.46833C131.195 8.00591 131.252 8.60008 131.28 9.25084C131.337 9.87331 131.394 10.5524 131.451 11.288C131.508 11.9954 131.55 12.7027 131.579 13.41C131.635 14.1174 131.664 14.8106 131.664 15.4897C131.692 16.1687 131.706 16.8053 131.706 17.3995C131.735 17.9654 131.749 18.4605 131.749 18.8849V29.1132C131.749 29.3961 131.678 29.5942 131.536 29.7073C131.422 29.7922 131.067 29.8488 130.471 29.8771C129.874 29.9054 128.851 29.9195 127.402 29.9195ZM142.19 29.9195L138.653 29.1132L139.249 21.7709C139.164 21.1767 139.093 20.5684 139.036 19.9459C138.979 19.3235 138.937 18.6869 138.908 18.0361C138.88 17.357 138.837 16.7063 138.78 16.0838C138.752 15.4331 138.724 14.7964 138.695 14.174C138.695 13.5515 138.681 12.9715 138.653 12.4339C138.653 11.8963 138.653 11.4012 138.653 10.9485V1.01731C138.653 0.734375 138.709 0.550465 138.823 0.465584C138.965 0.352409 139.334 0.281673 139.931 0.253378C140.556 0.225084 141.579 0.210938 142.999 0.210938V29.1132C142.999 29.6508 142.729 29.9195 142.19 29.9195Z" fill="#070C11"/>
<path d="M120.082 29.9195V2.12078C120.082 1.47002 120.138 1.01731 120.249 0.762669C120.389 0.508024 120.765 0.352408 121.379 0.295821C121.992 0.239232 123.01 0.210938 124.432 0.210938V29.1132C124.432 29.3961 124.363 29.5942 124.223 29.7073C124.112 29.7922 123.749 29.8488 123.136 29.8771C122.55 29.9054 121.532 29.9195 120.082 29.9195Z" fill="#070C11"/>
<path d="M66.5 29.9195V1.01731C66.5 1.01731 66.5285 0.889991 66.5856 0.635346C66.6711 0.352407 66.9134 0.210938 67.3126 0.210938H77.5346C77.5346 1.37099 77.5204 2.21981 77.4918 2.75739C77.4918 3.29497 77.4348 3.64865 77.3208 3.81841C77.2067 3.98818 77.0214 4.07306 76.7648 4.07306H70.8625V26.0574H77.278C77.278 27.2458 77.2637 28.1229 77.2352 28.6888C77.2352 29.2263 77.1782 29.5659 77.0641 29.7073C76.9501 29.8488 76.7648 29.9195 76.5081 29.9195H66.5ZM66.8849 15.7867V11.8397H76.4226C76.4226 13.4525 76.3941 14.5135 76.3371 15.0228C76.28 15.5321 76.0519 15.7867 75.6528 15.7867H66.8849Z" fill="#070C11"/>
<path d="M53.5566 29.9195V1.35684C53.5566 0.960726 53.614 0.691935 53.7287 0.550465C53.8722 0.380702 54.245 0.281673 54.8474 0.253378C55.4784 0.225084 56.5254 0.210938 57.9883 0.210938V25.8452H64.4852V29.1132C64.4852 29.4527 64.3991 29.679 64.227 29.7922C64.0836 29.8771 63.8971 29.9195 63.6677 29.9195H53.5566Z" fill="#070C11"/>
<path d="M46.375 29.9195V1.01731C46.375 0.734375 46.4314 0.550465 46.5442 0.465584C46.657 0.352409 47.0096 0.281673 47.6019 0.253378C48.1942 0.225084 49.2238 0.210938 50.6905 0.210938V29.1132C50.6905 29.3961 50.634 29.5942 50.5212 29.7073C50.4084 29.7922 50.0417 29.8488 49.4212 29.8771C48.8289 29.9054 47.8135 29.9195 46.375 29.9195ZM37.1094 29.9195V1.01731C37.1094 0.734375 37.1658 0.550465 37.2786 0.465584C37.3914 0.352409 37.744 0.281673 38.3363 0.253378C38.9286 0.225084 39.9582 0.210938 41.4249 0.210938V29.1132C41.4249 29.3961 41.3684 29.5942 41.2556 29.7073C41.171 29.7922 40.8184 29.8488 40.1979 29.8771C39.6056 29.9054 38.5761 29.9195 37.1094 29.9195ZM39.1825 16.0838V12.0095H48.2789L48.3212 16.0838H39.1825Z" fill="#070C11"/>
<path d="M34.998 0.809138V4.08828H8.91586C8.35331 4.08828 7.96973 4.0315 7.76516 3.91793C7.5606 3.80437 7.45832 3.59144 7.45832 3.27914L10.5005 0H33.5405C34.5122 0 34.998 0.269713 34.998 0.809138Z" fill="#F22602"/>
<path d="M19.4351 29.7071C19.2938 29.5931 19.2231 29.3936 19.2231 29.1087V14.7894C19.2231 10.3728 23.2297 6.71176 25.6315 4.29369C26.9785 2.93765 29.8068 0 34.1867 0C34.7237 0 34.9922 0.270712 34.9922 0.812136V4.10343H33.1515C32.0291 4.10343 27.0008 3.88504 25.6315 5.17504C23.1848 7.48012 23.5473 15.1955 23.5473 15.1955V29.9208C22.1342 29.9208 21.1308 29.9066 20.5373 29.8781C19.9155 29.8496 19.5481 29.7926 19.4351 29.7071Z" fill="#F22602"/>
<path d="M18.214 29.9177H17.9669C17.9669 29.9177 15.1008 21.7002 13.0982 15.8365C12.9924 15.4319 12.431 14.2416 11.4509 14.2416C10.2257 14.2416 9.52745 16.0153 9.74366 17.4089C9.95988 18.8025 12.1793 22.2978 11.0622 26.2988C9.94506 30.2999 2.53976 31.5137 0.683935 27.2204C0.433554 26.6412 -0.644626 24.5521 0.557811 20.9042C1.63964 17.6222 4.67692 8.63499 6.67618 2.73345C7.23032 1.09769 8.76465 0 10.4917 0H13.0982L6.23341 19.7354C5.07134 22.8899 5.09227 26.9084 7.4075 27.2204C10.777 27.6745 10.6888 21.948 10.0581 19.5653C9.42752 17.1827 9.0008 15.7114 10.1684 13.0268C11.0873 10.9139 14.2501 9.47736 16.2403 11.1611C17.8079 12.4873 18.2403 14.1057 18.8574 15.8365L22.0033 24.5132C22.9561 27.1413 21.0095 29.9177 18.214 29.9177Z" fill="#070C11"/>
<path d="M112.29 29.9177H112.043C112.043 29.9177 109.177 21.7002 107.174 15.8365C107.069 15.4319 106.507 14.2416 105.527 14.2416C104.302 14.2416 103.604 16.0153 103.82 17.4089C104.036 18.8025 106.255 22.2978 105.138 26.2988C104.021 30.2999 96.6159 31.5137 94.7601 27.2204C94.5097 26.6412 93.4315 24.5521 94.634 20.9042C95.7158 17.6222 98.7531 8.63499 100.752 2.73345C101.306 1.09769 102.841 0 104.568 0H107.174L100.31 19.7354C99.1475 22.8899 99.1684 26.9084 101.484 27.2204C104.853 27.6745 104.765 21.948 104.134 19.5653C103.504 17.1827 103.077 15.7114 104.245 13.0268C105.163 10.9139 108.326 9.47736 110.317 11.1611C111.884 12.4873 112.316 14.1057 112.934 15.8365L116.079 24.5132C117.032 27.1413 115.086 29.9177 112.29 29.9177Z" fill="#F22602"/>
<path d="M79.6992 0.809138V4.08828H105.781C106.344 4.08828 106.728 4.0315 106.932 3.91793C107.137 3.80437 107.239 3.59144 107.239 3.27914V0H81.1568C80.1851 0 79.6992 0.269713 79.6992 0.809138Z" fill="#070C11"/>
<path d="M95.2622 29.7071C95.4035 29.5931 95.4742 29.3936 95.4742 29.1087V14.7894C95.4742 10.3728 91.4676 6.71176 89.0657 4.29369C87.7188 2.93765 84.8905 0 80.5106 0C79.9736 0 79.7051 0.270712 79.7051 0.812136V4.10343H81.5458C82.6682 4.10343 87.6964 3.88504 89.0657 5.17504C91.5125 7.48012 91.15 15.1955 91.15 15.1955V29.9208C92.5631 29.9208 93.5664 29.9066 94.1599 29.8781C94.7817 29.8496 95.1491 29.7926 95.2622 29.7071Z" fill="#070C11"/>
</svg>
