<svg width="18" height="18" viewBox="0 0 18 18" fill="none" xmlns="http://www.w3.org/2000/svg">
<mask id="mask0_1888_10129" style="mask-type:alpha" maskUnits="userSpaceOnUse" x="0" y="0" width="18" height="18">
<rect width="18" height="18" fill="#D9D9D9"/>
</mask>
<g mask="url(#mask0_1888_10129)">
<path d="M1.53711 8.23281C1.59961 7.59531 1.73086 6.99219 1.93086 6.42344C2.13086 5.85469 2.40586 5.32031 2.75586 4.82031C3.19336 5.27031 3.55898 5.79219 3.85273 6.38594C4.14648 6.97969 4.33711 7.59531 4.42461 8.23281H1.53711ZM13.5746 8.23281C13.6621 7.59531 13.8496 6.98281 14.1371 6.39531C14.4246 5.80781 14.7934 5.28906 15.2434 4.83906C15.5934 5.32656 15.8684 5.85781 16.0684 6.43281C16.2684 7.00781 16.3996 7.60781 16.4621 8.23281H13.5746ZM2.75586 13.1641C2.40586 12.6766 2.13086 12.1484 1.93086 11.5797C1.73086 11.0109 1.59961 10.4078 1.53711 9.77031H4.42461C4.33711 10.4078 4.14648 11.0203 3.85273 11.6078C3.55898 12.1953 3.19336 12.7141 2.75586 13.1641ZM15.2434 13.1641C14.7934 12.7141 14.4246 12.1953 14.1371 11.6078C13.8496 11.0203 13.6621 10.4078 13.5746 9.77031H16.4621C16.3996 10.3953 16.2684 10.9953 16.0684 11.5703C15.8684 12.1453 15.5934 12.6766 15.2434 13.1641ZM5.94336 8.23281C5.84336 7.33281 5.59961 6.50156 5.21211 5.73906C4.82461 4.97656 4.31836 4.28906 3.69336 3.67656C4.29336 3.07656 4.97773 2.59531 5.74648 2.23281C6.51523 1.87031 7.34336 1.63906 8.23086 1.53906V8.23281H5.94336ZM9.76836 8.23281V1.53906C10.6559 1.63906 11.484 1.87031 12.2527 2.23281C13.0215 2.59531 13.7059 3.07656 14.3059 3.67656C13.6684 4.27656 13.159 4.96094 12.7777 5.72969C12.3965 6.49844 12.1559 7.33281 12.0559 8.23281H9.76836ZM8.23086 16.4641C7.33086 16.3641 6.49961 16.1297 5.73711 15.7609C4.97461 15.3922 4.29336 14.9078 3.69336 14.3078C4.33086 13.7078 4.84023 13.0266 5.22148 12.2641C5.60273 11.5016 5.84336 10.6703 5.94336 9.77031H8.23086V16.4641ZM9.76836 16.4641V9.77031H12.0559C12.1559 10.6703 12.3965 11.5047 12.7777 12.2734C13.159 13.0422 13.6684 13.7266 14.3059 14.3266C13.7059 14.9266 13.0215 15.4078 12.2527 15.7703C11.484 16.1328 10.6559 16.3641 9.76836 16.4641Z" fill="white"/>
</g>
</svg>
