<svg width="143" height="30" viewBox="0 0 143 30" fill="none" xmlns="http://www.w3.org/2000/svg">
<path d="M138.866 29.9213L134.221 18.4622C133.994 17.8398 133.738 17.1041 133.454 16.2553C133.17 15.3782 132.886 14.4445 132.602 13.4542C132.346 12.4639 132.091 11.5019 131.835 10.5682C131.608 9.60623 131.395 8.72911 131.196 7.93689C130.997 7.14466 130.826 6.50804 130.684 6.02705C130.571 5.54605 130.514 5.30555 130.514 5.30555L128 2.7591L128.213 0.212646H131.622L136.182 11.4595C136.437 12.1102 136.707 12.8883 136.991 13.7937C137.275 14.6991 137.559 15.647 137.844 16.6373C138.128 17.5993 138.383 18.5471 138.611 19.4808C138.866 20.3862 139.079 21.2209 139.25 21.9848C139.449 22.7487 139.605 23.3571 139.719 23.8098C139.832 24.2625 139.889 24.4888 139.889 24.4888L142.531 27.3748L142.19 29.9213H138.866ZM127.403 29.9213V1.01902C127.403 0.481439 127.673 0.212646 128.213 0.212646L131.75 1.01902L131.11 7.47003C131.196 8.00762 131.252 8.60179 131.281 9.25255C131.338 9.87502 131.395 10.5541 131.451 11.2897C131.508 11.9971 131.551 12.7044 131.579 13.4118C131.636 14.1191 131.664 14.8123 131.664 15.4914C131.693 16.1704 131.707 16.807 131.707 17.4012C131.735 17.9671 131.75 18.4622 131.75 18.8866V29.1149C131.75 29.3978 131.679 29.5959 131.537 29.709C131.423 29.7939 131.068 29.8505 130.471 29.8788C129.875 29.9071 128.852 29.9213 127.403 29.9213ZM142.19 29.9213L138.653 29.1149L139.25 21.7726C139.165 21.1784 139.094 20.5701 139.037 19.9477C138.98 19.3252 138.937 18.6886 138.909 18.0378C138.881 17.3588 138.838 16.708 138.781 16.0855C138.753 15.4348 138.724 14.7982 138.696 14.1757C138.696 13.5532 138.682 12.9732 138.653 12.4356C138.653 11.898 138.653 11.4029 138.653 10.9502V1.01902C138.653 0.736084 138.71 0.552174 138.824 0.467293C138.966 0.354118 139.335 0.283382 139.932 0.255087C140.557 0.226793 141.579 0.212646 143 0.212646V29.1149C143 29.6525 142.73 29.9213 142.19 29.9213Z" fill="#FEFEFE"/>
<path d="M120.082 29.9213V2.12249C120.082 1.47173 120.138 1.01902 120.249 0.764378C120.389 0.509733 120.765 0.354117 121.379 0.29753C121.992 0.240941 123.01 0.212646 124.432 0.212646V29.1149C124.432 29.3978 124.363 29.5959 124.223 29.709C124.112 29.7939 123.749 29.8505 123.136 29.8788C122.55 29.9071 121.532 29.9213 120.082 29.9213Z" fill="#FEFEFE"/>
<path d="M66.5004 29.9213V1.01902C66.5004 1.01902 66.5289 0.8917 66.5859 0.637055C66.6715 0.354116 66.9138 0.212646 67.313 0.212646H77.535C77.535 1.3727 77.5207 2.22151 77.4922 2.7591C77.4922 3.29668 77.4352 3.65036 77.3211 3.82012C77.2071 3.98988 77.0218 4.07477 76.7651 4.07477H70.8629V26.0591H77.2784C77.2784 27.2475 77.2641 28.1246 77.2356 28.6905C77.2356 29.2281 77.1786 29.5676 77.0645 29.709C76.9505 29.8505 76.7651 29.9213 76.5085 29.9213H66.5004ZM66.8853 15.7884V11.8414H76.423C76.423 13.4542 76.3945 14.5152 76.3374 15.0245C76.2804 15.5338 76.0523 15.7884 75.6531 15.7884H66.8853Z" fill="#FEFEFE"/>
<path d="M53.5558 29.9213V1.35855C53.5558 0.962435 53.6132 0.693644 53.7279 0.552174C53.8713 0.382411 54.2442 0.283382 54.8465 0.255087C55.4776 0.226793 56.5245 0.212646 57.9874 0.212646V25.8469H64.4843V29.1149C64.4843 29.4544 64.3982 29.6808 64.2261 29.7939C64.0827 29.8788 63.8963 29.9213 63.6668 29.9213H53.5558Z" fill="#FEFEFE"/>
<path d="M46.3757 29.9213V1.01902C46.3757 0.736084 46.4321 0.552174 46.5449 0.467293C46.6578 0.354118 47.0103 0.283382 47.6027 0.255087C48.195 0.226793 49.2245 0.212646 50.6912 0.212646V29.1149C50.6912 29.3978 50.6348 29.5959 50.522 29.709C50.4091 29.7939 50.0425 29.8505 49.4219 29.8788C48.8296 29.9071 47.8142 29.9213 46.3757 29.9213ZM37.1101 29.9213V1.01902C37.1101 0.736084 37.1665 0.552174 37.2793 0.467293C37.3922 0.354118 37.7447 0.283382 38.3371 0.255087C38.9294 0.226793 39.9589 0.212646 41.4256 0.212646V29.1149C41.4256 29.3978 41.3692 29.5959 41.2564 29.709C41.1717 29.7939 40.8192 29.8505 40.1986 29.8788C39.6063 29.9071 38.5768 29.9213 37.1101 29.9213ZM39.1832 16.0855V12.0112H48.2796L48.3219 16.0855H39.1832Z" fill="#FEFEFE"/>
<path d="M34.9976 0.809138V4.08828H8.91537C8.35282 4.08828 7.96924 4.0315 7.76468 3.91793C7.56011 3.80437 7.45783 3.59144 7.45783 3.27914L10.5 0H33.54C34.5117 0 34.9976 0.269713 34.9976 0.809138Z" fill="#F22601"/>
<path d="M19.435 29.7071C19.2936 29.5931 19.223 29.3936 19.223 29.1087V14.7894C19.223 10.3728 23.2295 6.71176 25.6314 4.29369C26.9784 2.93765 29.8067 0 34.1866 0C34.7236 0 34.9921 0.270712 34.9921 0.812136V4.10343H33.1514C32.029 4.10343 27.0007 3.88504 25.6314 5.17504C23.1846 7.48012 23.5472 15.1955 23.5472 15.1955V29.9208C22.134 29.9208 21.1307 29.9066 20.5372 29.8781C19.9154 29.8496 19.548 29.7926 19.435 29.7071Z" fill="#F22601"/>
<path d="M18.214 29.918H17.9669C17.9669 29.918 15.1008 21.7005 13.0982 15.8367C12.9924 15.4321 12.431 14.2418 11.4509 14.2418C10.2257 14.2418 9.52745 16.0155 9.74366 17.4091C9.95988 18.8027 12.1793 22.2981 11.0622 26.2991C9.94506 30.3001 2.53976 31.5139 0.683935 27.2207C0.433554 26.6414 -0.644626 24.5524 0.557811 20.9045C1.63964 17.6224 4.67692 8.63523 6.67618 2.7337C7.23032 1.09793 8.76465 0.000244141 10.4917 0.000244141H13.0982L6.23341 19.7356C5.07134 22.8901 5.09227 26.9087 7.4075 27.2207C10.777 27.6747 10.6888 21.9482 10.0581 19.5656C9.42752 17.1829 9.0008 15.7116 10.1684 13.027C11.0873 10.9141 14.2501 9.47761 16.2403 11.1614C17.8079 12.4875 18.2403 14.1059 18.8574 15.8367L22.0033 24.5134C22.9561 27.1416 21.0095 29.918 18.214 29.918Z" fill="#FEFEFE"/>
<path d="M112.289 29.9177H112.042C112.042 29.9177 109.176 21.7002 107.173 15.8365C107.068 15.4319 106.506 14.2416 105.526 14.2416C104.301 14.2416 103.603 16.0153 103.819 17.4089C104.035 18.8025 106.254 22.2978 105.137 26.2988C104.02 30.2999 96.615 31.5137 94.7591 27.2204C94.5087 26.6412 93.4306 24.5521 94.633 20.9042C95.7148 17.6222 98.7521 8.63499 100.751 2.73345C101.306 1.09769 102.84 0 104.567 0H107.173L100.309 19.7354C99.1465 22.8899 99.1675 26.9084 101.483 27.2204C104.852 27.6745 104.764 21.948 104.133 19.5653C103.503 17.1827 103.076 15.7114 104.244 13.0268C105.162 10.9139 108.325 9.47736 110.316 11.1611C111.883 12.4873 112.315 14.1057 112.933 15.8365L116.078 24.5132C117.031 27.1413 115.085 29.9177 112.289 29.9177Z" fill="#F22601"/>
<path d="M79.6992 0.809138V4.08828H105.781C106.344 4.08828 106.728 4.0315 106.932 3.91793C107.137 3.80437 107.239 3.59144 107.239 3.27914V0H81.1568C80.1851 0 79.6992 0.269713 79.6992 0.809138Z" fill="#FEFEFE"/>
<path d="M95.2618 29.7071C95.4031 29.5931 95.4738 29.3936 95.4738 29.1087V14.7894C95.4738 10.3728 91.4672 6.71176 89.0654 4.29369C87.7184 2.93765 84.8901 0 80.5102 0C79.9732 0 79.7047 0.270712 79.7047 0.812136V4.10343H81.5454C82.6678 4.10343 87.6961 3.88504 89.0654 5.17504C91.5121 7.48012 91.1496 15.1955 91.1496 15.1955V29.9208C92.5627 29.9208 93.5661 29.9066 94.1596 29.8781C94.7814 29.8496 95.1488 29.7926 95.2618 29.7071Z" fill="#FEFEFE"/>
</svg>
